<svg width="42" height="37" viewBox="0 0 42 37" fill="none" xmlns="http://www.w3.org/2000/svg">
<path d="M27.199 37C26.5512 36.9738 25.9396 36.6948 25.4952 36.2227C25.0509 35.7506 24.8094 35.1232 24.8225 34.475C24.8356 33.8269 25.1023 33.2097 25.5653 32.7559C26.0283 32.3022 26.6508 32.048 27.2991 32.048C27.9474 32.048 28.5697 32.3022 29.0327 32.7559C29.4957 33.2097 29.7624 33.8269 29.7755 34.475C29.7886 35.1232 29.5471 35.7506 29.1028 36.2227C28.6585 36.6948 28.0468 36.9738 27.399 37H27.199ZM7.75098 34.32C7.75098 33.79 7.90815 33.2718 8.20264 32.8311C8.49712 32.3904 8.91569 32.0469 9.4054 31.844C9.8951 31.6412 10.434 31.5881 10.9539 31.6915C11.4737 31.7949 11.9512 32.0502 12.326 32.425C12.7009 32.7998 12.9562 33.2773 13.0596 33.7972C13.163 34.317 13.1098 34.8559 12.907 35.3456C12.7041 35.8353 12.3606 36.2539 11.9199 36.5483C11.4792 36.8428 10.9611 37 10.431 37C10.0789 37.0003 9.73017 36.9311 9.40479 36.7966C9.0794 36.662 8.78374 36.4646 8.53467 36.2158C8.2856 35.9669 8.08805 35.6713 7.95325 35.3461C7.81844 35.0208 7.74902 34.6721 7.74902 34.32H7.75098ZM11.551 28.686C11.2916 28.6868 11.039 28.6024 10.8322 28.4457C10.6253 28.2891 10.4756 28.0689 10.406 27.819L5.573 10.364H2.18005C1.86657 10.364 1.56591 10.2395 1.34424 10.0178C1.12257 9.79614 0.998047 9.49549 0.998047 9.18201C0.998047 8.86852 1.12257 8.56787 1.34424 8.3462C1.56591 8.12454 1.86657 8.00001 2.18005 8.00001H6.46106C6.72055 7.99919 6.97309 8.08372 7.17981 8.24057C7.38653 8.39742 7.53589 8.61788 7.60498 8.86801L12.438 26.323H25.616L29.999 16.275H15.399C15.2409 16.2796 15.0834 16.2524 14.9359 16.1951C14.7884 16.1377 14.6539 16.0513 14.5404 15.9411C14.4269 15.8308 14.3366 15.6989 14.275 15.5532C14.2134 15.4074 14.1816 15.2508 14.1816 15.0925C14.1816 14.9343 14.2134 14.7776 14.275 14.6319C14.3366 14.4861 14.4269 14.3542 14.5404 14.2439C14.6539 14.1337 14.7884 14.0473 14.9359 13.9899C15.0834 13.9326 15.2409 13.9054 15.399 13.91H31.812C32.0077 13.91 32.2003 13.9587 32.3724 14.0517C32.5446 14.1448 32.6908 14.2793 32.798 14.443C32.9058 14.6073 32.9714 14.7957 32.9889 14.9914C33.0063 15.1872 32.9752 15.3842 32.8981 15.565L27.493 27.977C27.4007 28.1876 27.249 28.3668 27.0565 28.4927C26.864 28.6186 26.6391 28.6858 26.4091 28.686H11.551Z" fill="#E8E8E8"/>
<path d="M32.5 19C37.7467 19 42 14.7467 42 9.5C42 4.25329 37.7467 0 32.5 0C27.2533 0 23 4.25329 23 9.5C23 14.7467 27.2533 19 32.5 19Z" fill="#F16D7F"/>
<path d="M31.8126 7.648C32.2606 7.552 32.6726 7.504 33.0486 7.504C33.4966 7.504 33.8926 7.57 34.2366 7.702C34.5806 7.834 34.8666 8.016 35.0946 8.248C35.3266 8.48 35.5006 8.754 35.6166 9.07C35.7366 9.386 35.7966 9.73 35.7966 10.102C35.7966 10.558 35.7166 10.97 35.5566 11.338C35.4006 11.706 35.1826 12.022 34.9026 12.286C34.6266 12.546 34.3006 12.746 33.9246 12.886C33.5486 13.026 33.1426 13.096 32.7066 13.096C32.4546 13.096 32.2126 13.07 31.9806 13.018C31.7486 12.97 31.5306 12.904 31.3266 12.82C31.1266 12.736 30.9406 12.64 30.7686 12.532C30.5966 12.424 30.4446 12.31 30.3126 12.19L30.6426 11.734C30.7146 11.63 30.8086 11.578 30.9246 11.578C31.0046 11.578 31.0946 11.61 31.1946 11.674C31.2946 11.734 31.4166 11.802 31.5606 11.878C31.7046 11.954 31.8726 12.024 32.0646 12.088C32.2606 12.148 32.4926 12.178 32.7606 12.178C33.0606 12.178 33.3306 12.13 33.5706 12.034C33.8106 11.938 34.0166 11.802 34.1886 11.626C34.3606 11.446 34.4926 11.232 34.5846 10.984C34.6766 10.736 34.7226 10.458 34.7226 10.15C34.7226 9.882 34.6826 9.64 34.6026 9.424C34.5266 9.208 34.4086 9.024 34.2486 8.872C34.0926 8.72 33.8966 8.602 33.6606 8.518C33.4246 8.434 33.1486 8.392 32.8326 8.392C32.6166 8.392 32.3906 8.41 32.1546 8.446C31.9226 8.482 31.6846 8.54 31.4406 8.62L30.7686 8.422L31.4586 4.402H35.5326V4.87C35.5326 5.022 35.4846 5.148 35.3886 5.248C35.2966 5.344 35.1366 5.392 34.9086 5.392H32.2086L31.8126 7.648Z" fill="white"/>
</svg>
